<svg height="100%" viewBox="0 0 431 505" fill="none" xmlns="http://www.w3.org/2000/svg">
<path  class="fill-current" d="M326.828 252.5C370.078 245.912 431 231.414 431 202C431 147.569 408.1 96.5715 366.515 58.4402C330.08 25.0169 283.065 5.11215 232.675 1.414C226.997 0.481692 221.272 0 215.531 0C209.775 0 204.05 0.481692 198.371 1.414C87.541 9.60277 0.0622293 96.4317 0.0622293 202C0.0622293 231.414 60.9225 245.912 104.172 252.5C60.9536 259.073 0 273.57 0 303C0 357.431 22.9004 408.428 64.4851 446.56C100.92 479.983 147.919 499.888 198.325 503.586C203.988 504.518 209.713 505 215.469 505C221.225 505 226.95 504.518 232.629 503.586C343.443 495.397 430.938 408.568 430.938 303C430.938 273.586 370.062 259.088 326.828 252.5ZM415.443 202C415.443 210.639 389.804 227.545 321.71 237.552C317.167 205.248 298.172 177.511 271.46 161.149C304.846 163.434 335.416 167.738 360.541 173.844C403.868 184.379 415.443 196.499 415.443 202ZM215.531 344.084C164.97 344.084 123.836 303 123.836 252.5C123.836 202 164.97 160.916 215.531 160.916C266.092 160.916 307.226 202 307.226 252.5C307.226 303 266.092 344.084 215.531 344.084ZM259.792 360.119C257.831 382.635 254.907 402.011 251.406 418.389C239.661 419.647 227.666 420.315 215.469 420.315C203.272 420.315 191.277 419.647 179.531 418.389C176.031 402.011 173.106 382.65 171.146 360.119C185.568 360.865 200.394 361.269 215.469 361.269C230.544 361.269 245.37 360.865 259.792 360.119ZM171.208 144.881C173.169 122.365 176.093 102.989 179.594 86.6114C191.339 85.3528 203.334 84.6846 215.531 84.6846C227.728 84.6846 239.723 85.3528 251.469 86.6114C254.969 102.989 257.894 122.35 259.854 144.881C245.432 144.135 230.606 143.731 215.531 143.731C200.456 143.731 185.614 144.135 171.208 144.881ZM267.586 88.7402C288.417 92.0498 308.175 97.3329 326.206 104.45C332.724 119.568 337.765 136.164 341.079 153.862C321.196 150.241 299.058 147.538 275.536 145.844C273.918 126.84 271.289 107.2 267.586 88.7402ZM364.228 158.741C362.003 158.197 359.716 157.684 357.414 157.156C354.956 142.053 351.269 127.431 346.415 113.602C350.506 115.699 354.52 117.89 358.363 120.206C384.204 135.76 401.877 154.716 410.122 175.212C399.123 169.012 383.815 163.511 364.228 158.741ZM355.983 69.8765C376.518 88.7246 392.107 110.929 402.172 135.2C392.511 124.929 380.532 115.42 366.406 106.905C357.492 101.544 347.908 96.7425 337.827 92.4538C329.955 75.5014 320.279 60.1494 309.031 47.066C303.85 41.0371 298.389 35.552 292.695 30.6263C316.016 39.6852 337.485 52.9085 355.983 69.8765ZM316.203 84.3583C299.743 79.0131 282.194 75.0508 263.961 72.5025C258.749 51.4634 251.951 32.8949 243.457 19.9358C272.238 29.1191 297.845 52.1782 316.203 84.3583ZM215.531 16.3154C224.772 16.3154 237.669 33.6097 247.61 70.5912C237.078 69.6278 226.359 69.1461 215.531 69.1461C204.688 69.1461 193.984 69.6434 183.452 70.5912C193.393 33.6097 206.29 16.3154 215.531 16.3154ZM187.606 19.9203C179.111 32.8949 172.313 51.4634 167.101 72.5025C148.852 75.0508 131.288 79.0286 114.813 84.3738C133.171 52.1626 158.778 29.088 187.606 19.9203ZM163.461 88.7402C159.758 107.2 157.129 126.84 155.511 145.844C131.988 147.538 109.85 150.241 89.968 153.862C93.2661 136.164 98.3223 119.568 104.825 104.465C122.856 97.3329 142.63 92.0498 163.461 88.7402ZM138.165 30.7817C132.455 35.7385 126.979 41.2546 121.783 47.3146C110.628 60.3514 101.014 75.6102 93.2039 92.4538C83.1228 96.7269 73.5395 101.528 64.6407 106.889C50.608 115.342 38.7066 124.789 29.0922 134.967C48.7255 88.0409 88.3189 50.2825 138.165 30.7817ZM72.6838 120.206C76.5265 117.89 80.5402 115.699 84.6474 113.602C79.7935 127.446 76.1064 142.068 73.6328 157.172C71.3303 157.684 69.0434 158.213 66.8187 158.756C47.232 163.527 31.9081 169.027 20.9246 175.227C29.17 154.716 46.8431 135.76 72.6838 120.206ZM15.6195 202C15.6195 196.499 27.1786 184.379 70.5058 173.844C95.6308 167.738 126.201 163.418 159.587 161.149C132.875 177.527 113.88 205.248 109.337 237.552C41.2425 227.545 15.6195 210.639 15.6195 202ZM15.5573 303C15.5573 294.361 41.1958 277.439 109.337 267.432C113.88 299.737 132.875 327.473 159.587 343.851C126.185 341.566 95.5842 337.262 70.4435 331.156C27.1164 320.621 15.5573 308.501 15.5573 303ZM163.414 416.26C142.583 412.95 122.825 407.667 104.794 400.55C98.2756 385.432 93.235 368.836 89.9213 351.138C109.804 354.759 131.942 357.462 155.464 359.156C157.082 378.16 159.711 397.8 163.414 416.26ZM66.772 346.259C68.9967 346.803 71.2836 347.316 73.5861 347.844C76.0442 362.947 79.7313 377.569 84.5851 391.398C80.4936 389.301 76.4798 387.11 72.6371 384.794C46.7964 369.24 29.1233 350.284 20.8779 329.788C31.8614 335.988 47.1853 341.489 66.772 346.259ZM75.0018 435.124C54.4662 416.275 38.8777 394.071 28.8122 369.8C38.4733 380.071 50.4524 389.58 64.5784 398.095C73.4928 403.456 83.0761 408.258 93.1572 412.546C101.029 429.499 110.706 444.851 121.954 457.934C127.134 463.963 132.595 469.448 138.289 474.374C114.984 465.315 93.5151 452.092 75.0018 435.124ZM114.797 420.642C131.257 425.987 148.806 429.949 167.039 432.498C172.251 453.537 179.049 472.105 187.544 485.064C158.747 475.881 133.155 452.822 114.797 420.642ZM215.469 488.685C206.228 488.685 193.331 471.39 183.39 434.409C193.922 435.372 204.641 435.854 215.469 435.854C226.312 435.854 237.016 435.357 247.548 434.409C237.607 471.39 224.71 488.685 215.469 488.685ZM243.394 485.08C251.889 472.105 258.687 453.537 263.899 432.498C282.148 429.949 299.712 425.971 316.187 420.626C297.829 452.837 272.222 475.896 243.394 485.08ZM267.524 416.26C271.226 397.8 273.856 378.16 275.473 359.156C298.996 357.462 321.134 354.759 341.016 351.138C337.718 368.836 332.662 385.432 326.159 400.535C308.128 407.667 288.37 412.95 267.524 416.26ZM292.82 474.218C298.529 469.262 304.006 463.745 309.202 457.685C320.356 444.649 329.971 429.39 337.781 412.546C347.862 408.273 357.445 403.472 366.344 398.111C380.376 389.658 392.278 380.211 401.892 370.033C382.274 416.959 342.666 454.718 292.82 474.218ZM358.316 384.794C354.474 387.11 350.46 389.301 346.353 391.398C351.207 377.554 354.894 362.932 357.367 347.828C359.67 347.316 361.957 346.787 364.181 346.244C383.768 341.473 399.092 335.973 410.075 329.773C401.83 350.284 384.141 369.24 358.316 384.794ZM360.494 331.156C335.385 337.262 304.83 341.566 271.475 343.851C298.187 327.473 317.183 299.752 321.71 267.448C389.758 277.455 415.38 294.361 415.38 303C415.38 308.501 403.821 320.621 360.494 331.156Z" />
</svg>
